<?xml version="1.0" standalone="no"?>
<!DOCTYPE svg PUBLIC "-//W3C//DTD SVG 20010904//EN"
 "http://www.w3.org/TR/2001/REC-SVG-20010904/DTD/svg10.dtd">
<svg version="1.0" xmlns="http://www.w3.org/2000/svg"
 width="512.000000pt" height="512.000000pt" viewBox="0 0 512.000000 512.000000"
 preserveAspectRatio="xMidYMid meet">
<metadata>
Created by potrace 1.14, written by Peter Selinger 2001-2017
</metadata>
<g transform="translate(0.000000,512.000000) scale(0.100000,-0.100000)"
fill="#000000" stroke="none">
<path d="M1270 5113 c-489 -54 -915 -353 -1125 -788 -59 -122 -95 -228 -122
-361 -17 -83 -18 -176 -18 -1404 0 -1228 1 -1321 18 -1404 92 -450 373 -819
772 -1011 122 -59 228 -95 361 -122 83 -17 176 -18 1404 -18 1228 0 1321 1
1404 18 133 27 239 63 361 122 399 192 680 561 772 1011 17 83 18 176 18 1404
0 1228 -1 1321 -18 1404 -92 450 -374 820 -772 1011 -124 59 -202 87 -337 118
-92 21 -104 21 -1388 23 -712 0 -1311 -1 -1330 -3z m1615 -1085 c-3 -13 -86
-426 -184 -918 -104 -517 -190 -922 -204 -960 -132 -352 -400 -600 -753 -697
-90 -25 -114 -27 -269 -27 -205 0 -273 15 -440 98 -116 58 -193 117 -266 204
-41 49 -85 121 -77 126 2 2 100 82 220 179 119 97 218 177 221 177 3 0 8 -12
12 -27 10 -41 72 -129 115 -163 21 -17 65 -43 97 -58 52 -24 69 -27 164 -27
102 0 107 1 183 39 101 50 182 130 232 231 34 69 49 138 211 947 96 480 176
879 178 886 3 9 69 12 285 12 l280 0 -5 -22z m1140 -5 c-3 -16 -106 -392 -228
-838 l-223 -810 -187 -3 c-170 -2 -187 -1 -187 14 0 22 199 1611 206 1642 l4
22 311 0 311 0 -7 -27z m-587 -1938 c86 -37 144 -108 162 -203 21 -111 -30
-240 -134 -340 -82 -79 -155 -114 -252 -120 -165 -10 -285 86 -309 248 -14 98
31 207 124 301 122 122 282 166 409 114z"/>
</g>
</svg>
